HIERARCHY
ROOT Hips
{
	OFFSET 52.595100 -44.763016 100.899994
	CHANNELS 6 Xposition Yposition Zposition Xrotation Yrotation Zrotation
	JOINT spine
	{
		OFFSET 0.000000 -0.507027 8.817039
		CHANNELS 3 Xrotation Yrotation Zrotation
		JOINT spine1
		{
			OFFSET 0.000000 0.000000 10.776596
			CHANNELS 3 Xrotation Yrotation Zrotation
			JOINT spine2
			{
				OFFSET 0.000000 -0.000004 10.325905
				CHANNELS 3 Xrotation Yrotation Zrotation
				JOINT Neck
				{
					OFFSET 0.000000 -1.263954 26.511002
					CHANNELS 3 Xrotation Yrotation Zrotation
					JOINT Head
					{
						OFFSET 0.000000 0.000000 8.009659
						CHANNELS 3 Xrotation Yrotation Zrotation
						End Site
						{
							OFFSET 0.000000 6.393856 19.387894
						}
					}
				}
				JOINT RightShoulder
				{
					OFFSET -4.347950 0.605423 11.151199
					CHANNELS 3 Xrotation Yrotation Zrotation
					JOINT RightArm
					{
						OFFSET 0.000000 -0.000004 14.625793
						CHANNELS 3 Xrotation Yrotation Zrotation
						JOINT RightArmRoll
						{
							OFFSET 0.000000 0.000000 7.383392
							CHANNELS 3 Xrotation Yrotation Zrotation
							JOINT RightForeArm
							{
								OFFSET 0.000000 -0.000004 21.505203
								CHANNELS 3 Xrotation Yrotation Zrotation
								JOINT RightForeArmRoll
								{
									OFFSET 0.000000 0.000000 8.285324
									CHANNELS 3 Xrotation Yrotation Zrotation
									JOINT RightHand
									{
										OFFSET 0.000000 -0.000004 16.626801
										CHANNELS 3 Xrotation Yrotation Zrotation
										End Site
										{
											OFFSET 0.000000 0.000000 0.100006
										}
									}
								}
							}
						}
					}
				}
				JOINT LeftShoulder
				{
					OFFSET 4.347950 0.605423 11.151199
					CHANNELS 3 Xrotation Yrotation Zrotation
					JOINT LeftArm
					{
						OFFSET 0.000000 -0.000004 14.625793
						CHANNELS 3 Xrotation Yrotation Zrotation
						JOINT LeftArmRoll
						{
							OFFSET 0.000000 0.000000 7.383392
							CHANNELS 3 Xrotation Yrotation Zrotation
							JOINT LeftForeArm
							{
								OFFSET 0.000000 -0.000004 21.505203
								CHANNELS 3 Xrotation Yrotation Zrotation
								JOINT LeftForeArmRoll
								{
									OFFSET 0.000000 0.000000 8.285324
									CHANNELS 3 Xrotation Yrotation Zrotation
									JOINT LeftHand
									{
										OFFSET 0.000000 -0.000004 16.626801
										CHANNELS 3 Xrotation Yrotation Zrotation
										End Site
										{
											OFFSET 0.000000 0.000000 0.100006
										}
									}
								}
							}
						}
					}
				}
			}
		}
	}
	JOINT RightUpLeg
	{
		OFFSET -7.815102 1.202171 -1.433090
		CHANNELS 3 Xrotation Yrotation Zrotation
		JOINT RightUpLegRoll
		{
			OFFSET 0.000000 -0.000004 19.495903
			CHANNELS 3 Xrotation Yrotation Zrotation
			JOINT RightLeg
			{
				OFFSET 0.000000 0.000004 -24.142700
				CHANNELS 3 Xrotation Yrotation Zrotation
				JOINT RightLegRoll
				{
					OFFSET 0.000000 -0.000004 24.221703
					CHANNELS 3 Xrotation Yrotation Zrotation
					JOINT RightFoot
					{
						OFFSET 0.000000 -0.000004 20.160507
						CHANNELS 3 Xrotation Yrotation Zrotation
						JOINT RightToeBase
						{
							OFFSET 0.000000 -0.000004 16.853195
							CHANNELS 3 Xrotation Yrotation Zrotation
							End Site
							{
								OFFSET 0.007145 0.940781 8.161865
							}
						}
					}
				}
			}
		}
	}
	JOINT LeftUpLeg
	{
		OFFSET 7.815102 1.202171 -1.433090
		CHANNELS 3 Xrotation Yrotation Zrotation
		JOINT LeftUpLegRoll
		{
			OFFSET 0.000000 -0.000004 19.496002
			CHANNELS 3 Xrotation Yrotation Zrotation
			JOINT LeftLeg
			{
				OFFSET 0.000000 -0.000004 24.142609
				CHANNELS 3 Xrotation Yrotation Zrotation
				JOINT LeftLegRoll
				{
					OFFSET 0.000000 -0.000004 24.445602
					CHANNELS 3 Xrotation Yrotation Zrotation
					JOINT LeftFoot
					{
						OFFSET 0.000000 -0.000004 19.936600
						CHANNELS 3 Xrotation Yrotation Zrotation
						JOINT LeftToeBase
						{
							OFFSET 0.000000 -0.000004 16.853195
							CHANNELS 3 Xrotation Yrotation Zrotation
							End Site
							{
								OFFSET -0.032013 0.940781 8.161865
							}
						}
					}
				}
			}
		}
	}
}
MOTION
Frames: 10
Frame Time: 0.041667
50.332798 -10.585018 51.659878 -22.706001 2.779580 0.432339 1.748901 -0.512042 0.069995 7.500465 -1.023687 0.149152 9.145678 -1.021875 0.161488 38.680382 -3.088168 2.525765 -21.927411 6.893029 2.386353 -3.517174 -80.664828 -6.202714 91.713246 -60.279377 87.250141 0.000003 0.000001 0.000001 43.755247 -15.330805 5.319195 0.000012 0.000000 -3.008979 -4.999686 -7.998780 -0.000069 -7.353749 66.966282 9.303587 -65.652550 118.175988 75.069414 -0.000003 -0.000001 0.000003 46.881882 11.916214 -3.837456 -0.000001 -0.000003 3.005679 -5.000037 7.998693 -0.000106 -72.649628 -169.160249 7.505743 179.999964 0.000006 -1.725996 75.813133 1.479081 0.847452 -0.000007 -0.000008 2.114290 73.658194 8.271609 -2.287509 25.460032 -7.352988 0.012985 -75.270563 165.597363 2.010037 -0.000036 -0.000004 -1.159890 -105.566209 -5.239633 -4.619663 -0.000002 -0.000002 -1.572143 72.433330 -5.687547 -5.272993 25.456953 7.355609 -0.008891 
50.335896 -10.600319 51.658787 -22.706202 2.779614 0.431219 1.749361 -0.512493 0.069995 7.502262 -1.023584 0.149175 9.147477 -1.021771 0.161510 38.677838 -3.087355 2.524837 -21.928158 6.899968 2.386309 -3.522778 -80.664869 -6.208595 91.702632 -60.277758 87.239657 0.000001 -0.000000 0.000001 43.758847 -15.329849 5.319420 0.000014 0.000002 -3.008980 -4.999684 -7.998780 -0.000070 -7.353681 66.974035 9.304063 -65.664995 118.175564 75.081865 -0.000003 0.000000 0.000001 46.884242 11.915989 -3.837466 -0.000002 -0.000001 3.005682 -5.000037 7.998695 -0.000107 -72.650257 -169.159825 7.504853 179.999964 0.000005 -1.725997 75.812798 1.479791 0.847454 -0.000007 -0.000008 2.114290 73.658645 8.272081 -2.287676 25.460029 -7.352988 0.012987 -75.270925 165.597691 2.010727 -0.000036 -0.000004 -1.159890 -105.565355 -5.239655 -4.619623 -0.000002 -0.000003 -1.572129 72.432462 -5.687787 -5.273673 25.456950 7.355609 -0.008889 
50.335796 -10.593918 51.662086 -22.706400 2.779610 0.430087 1.749830 -0.512955 0.069995 7.504104 -1.023451 0.149176 9.149318 -1.021618 0.161506 38.675277 -3.086089 2.523630 -21.928785 6.906614 2.386062 -3.528126 -80.664616 -6.214181 91.692004 -60.276337 87.229077 -0.000000 -0.000002 0.000002 43.762525 -15.328792 5.319580 0.000013 -0.000000 -3.008981 -4.999686 -7.998780 -0.000069 -7.353668 66.982388 9.304648 -65.677508 118.175223 75.094173 -0.000002 -0.000000 0.000002 46.886588 11.915770 -3.837468 -0.000002 -0.000002 3.005680 -5.000035 7.998695 -0.000105 -72.650700 -169.159265 7.504301 179.999964 0.000004 -1.725998 75.812272 1.480542 0.847456 -0.000007 -0.000007 2.114287 73.659137 8.272615 -2.287735 25.460032 -7.352987 0.012987 -75.270980 165.598223 2.010506 -0.000035 -0.000005 -1.159890 -105.564494 -5.239374 -4.619546 -0.000002 -0.000002 -1.572120 72.431608 -5.688088 -5.274063 25.456947 7.355607 -0.008890 
50.331894 -10.600712 51.660381 -22.706709 2.779585 0.428955 1.750278 -0.513422 0.069995 7.505984 -1.023278 0.149159 9.151197 -1.021444 0.161487 38.672808 -3.084521 2.522249 -21.929402 6.913053 2.385683 -3.533324 -80.664261 -6.219604 91.681404 -60.275019 87.218476 -0.000002 -0.000001 0.000001 43.766421 -15.327766 5.319843 0.000012 -0.000000 -3.008980 -4.999683 -7.998778 -0.000069 -7.353705 66.991233 9.305319 -65.691742 118.174471 75.108332 -0.000001 -0.000000 0.000003 46.888952 11.915544 -3.837440 -0.000003 -0.000003 3.005679 -5.000036 7.998692 -0.000109 -72.651076 -169.158678 7.503848 179.999964 0.000006 -1.725998 75.811746 1.481308 0.847456 -0.000006 -0.000006 2.114289 73.659847 8.273142 -2.288010 25.460030 -7.352989 0.012988 -75.271041 165.598770 2.010387 -0.000035 -0.000004 -1.159890 -105.563545 -5.239362 -4.619500 -0.000002 -0.000002 -1.572102 72.430652 -5.688421 -5.274562 25.456948 7.355611 -0.008888 
50.332897 -10.614407 51.645885 -22.707106 2.779540 0.427820 1.750747 -0.513894 0.069995 7.507875 -1.023095 0.149134 9.153089 -1.021251 0.161458 38.670322 -3.082765 2.520751 -21.929909 6.919390 2.385218 -3.538429 -80.663817 -6.224918 91.670633 -60.273701 87.207609 -0.000001 -0.000000 0.000002 43.770325 -15.326736 5.320110 0.000013 -0.000000 -3.008980 -4.999684 -7.998781 -0.000069 -7.353803 67.000385 9.306086 -65.707759 118.173420 75.124404 -0.000001 -0.000001 0.000002 46.891325 11.915389 -3.837479 -0.000003 -0.000002 3.005677 -5.000037 7.998696 -0.000105 -72.651438 -169.158077 7.503607 179.999964 0.000005 -1.725997 75.811227 1.482081 0.847451 -0.000007 -0.000008 2.114289 73.660482 8.273745 -2.288272 25.460032 -7.352988 0.012987 -75.271089 165.599289 2.010266 -0.000036 -0.000003 -1.159890 -105.562507 -5.239319 -4.619447 -0.000002 -0.000002 -1.572081 72.429812 -5.688718 -5.275055 25.456947 7.355610 -0.008890 
50.336300 -10.602013 51.652367 -22.707406 2.779497 0.426681 1.751203 -0.514365 0.069995 7.509776 -1.022902 0.149106 9.154986 -1.021059 0.161428 38.667740 -3.080976 2.519225 -21.930414 6.925698 2.384734 -3.543475 -80.663257 -6.230164 91.659855 -60.272472 87.196763 -0.000000 -0.000001 0.000002 43.774225 -15.325707 5.320364 0.000014 0.000000 -3.008980 -4.999685 -7.998782 -0.000069 -7.353907 67.009531 9.306844 -65.722088 118.172750 75.138447 -0.000002 -0.000000 0.000003 46.893593 11.915258 -3.837497 -0.000003 -0.000000 3.005680 -5.000037 7.998693 -0.000106 -72.651718 -169.157435 7.503370 179.999964 0.000006 -1.725998 75.810701 1.482858 0.847452 -0.000008 -0.000008 2.114290 73.661213 8.274294 -2.288543 25.460030 -7.352984 0.012986 -75.271137 165.599808 2.010144 -0.000037 -0.000004 -1.159890 -105.561455 -5.239272 -4.619391 -0.000002 -0.000002 -1.572062 72.428863 -5.689077 -5.275458 25.456952 7.355614 -0.008891 
50.335300 -10.596413 51.661777 -22.707700 2.779463 0.425546 1.751667 -0.514836 0.069995 7.511664 -1.022719 0.149082 9.156877 -1.020875 0.161402 38.665260 -3.079268 2.517757 -21.930938 6.932051 2.384285 -3.548593 -80.662813 -6.235489 91.649090 -60.271147 87.185917 -0.000002 -0.000001 0.000002 43.778128 -15.324684 5.320617 0.000013 0.000000 -3.008980 -4.999680 -7.998780 -0.000070 -7.353978 67.018581 9.307580 -65.736411 118.172108 75.152688 -0.000004 -0.000000 0.000002 46.895952 11.915040 -3.837466 -0.000003 -0.000000 3.005681 -5.000034 7.998692 -0.000107 -72.652176 -169.156492 7.502080 179.999964 0.000006 -1.725997 75.810073 1.483641 0.847459 -0.000007 -0.000008 2.114288 73.661924 8.274824 -2.288819 25.460036 -7.352989 0.012987 -75.270939 165.600614 2.009012 -0.000037 -0.000005 -1.159890 -105.560519 -5.239263 -4.619346 -0.000002 -0.000002 -1.572039 72.427913 -5.689405 -5.275857 25.456950 7.355612 -0.008890 
50.337200 -10.602905 51.655380 -22.708004 2.779448 0.424417 1.752129 -0.515302 0.069995 7.513536 -1.022567 0.149071 9.158748 -1.020702 0.161387 38.662788 -3.077786 2.516429 -21.931553 6.938558 2.383946 -3.553863 -80.662560 -6.240989 91.638278 -60.269733 87.175098 0.000001 -0.000000 0.000001 43.781929 -15.323671 5.320865 0.000012 -0.000002 -3.008981 -4.999686 -7.998776 -0.000070 -7.354034 67.027324 9.308258 -65.750652 118.171370 75.166847 -0.000004 0.000001 0.000001 46.898333 11.914883 -3.837514 -0.000002 -0.000002 3.005679 -5.000035 7.998694 -0.000106 -72.652633 -169.155946 7.501612 179.999964 0.000004 -1.725997 75.809547 1.484403 0.847453 -0.000007 -0.000008 2.114290 73.662538 8.275392 -2.289087 25.460027 -7.352985 0.012985 -75.270993 165.601119 2.008791 -0.000036 -0.000004 -1.159890 -105.559563 -5.239248 -4.619302 -0.000001 -0.000002 -1.572030 72.426964 -5.689735 -5.276354 25.456952 7.355611 -0.008892 
50.335495 -10.597420 51.659973 -22.708205 2.779453 0.423289 1.752584 -0.515760 0.069995 7.515365 -1.022433 0.149078 9.160575 -1.020568 0.161392 38.660237 -3.076659 2.515310 -21.932183 6.945297 2.383758 -3.559288 -80.662403 -6.246670 91.627855 -60.268189 87.164777 0.000003 -0.000000 0.000001 43.785611 -15.322623 5.321025 0.000015 0.000003 -3.008979 -4.999684 -7.998780 -0.000069 -7.354018 67.035575 9.308822 -65.764784 118.170537 75.181019 -0.000002 -0.000001 0.000002 46.900669 11.914596 -3.837442 -0.000002 -0.000001 3.005680 -5.000037 7.998692 -0.000109 -72.653077 -169.155399 7.500859 179.999964 0.000005 -1.725997 75.809123 1.485138 0.847458 -0.000007 -0.000007 2.114289 73.663016 8.275900 -2.289145 25.460029 -7.352991 0.012987 -75.271294 165.601406 2.009566 -0.000036 -0.000004 -1.159890 -105.558620 -5.239236 -4.619253 -0.000002 -0.000002 -1.572007 72.426097 -5.690004 -5.276939 25.456950 7.355609 -0.008891 
50.334595 -10.595314 51.657974 -22.708299 2.779497 0.422167 1.753054 -0.516209 0.069995 7.517143 -1.022360 0.149112 9.162357 -1.020485 0.161424 38.657706 -3.076017 2.514487 -21.933037 6.952342 2.383803 -3.564990 -80.662547 -6.252657 91.617234 -60.266570 87.154327 -0.000004 -0.000000 0.000002 43.789111 -15.321687 5.321233 0.000013 0.000001 -3.008980 -4.999684 -7.998778 -0.000068 -7.353884 67.043020 9.309218 -65.777208 118.170127 75.193553 -0.000001 -0.000001 0.000002 46.903124 11.914347 -3.837495 -0.000003 -0.000002 3.005679 -5.000038 7.998696 -0.000107 -72.653521 -169.155249 7.500838 179.999964 0.000005 -1.725997 75.808796 1.485838 0.847450 -0.000007 -0.000008 2.114289 73.663454 8.276314 -2.289219 25.460030 -7.352987 0.012985 -75.271424 165.601994 2.009264 -0.000035 -0.000005 -1.159890 -105.557855 -5.238989 -4.620194 -0.000002 -0.000002 -1.572010 72.425325 -5.690212 -5.277513 25.456948 7.355610 -0.008890 
